<mxfile host="app.diagrams.net" modified="2023-06-23T18:00:46.422Z" agent="Mozilla/5.0 (X11; Linux x86_64; rv:109.0) Gecko/20100101 Firefox/114.0" version="21.5.0" etag="oJA0-7ai8Jl0tVHXejvX" type="github">
  <diagram name="Page-1" id="pFvh6dy1jD-jlVdZO9ba">
    <mxGraphModel>
      <root>
        <mxCell id="0" />
        <mxCell id="1" parent="0" />
      </root>
    </mxGraphModel>
  </diagram>
</mxfile>
